<?xml version="1.0" encoding="UTF-8" standalone="no"?>
<!-- Created with Inkscape (http://www.inkscape.org/) -->

<svg
   version="1.1"
   id="svg1"
   width="5291.3335"
   height="5291.3335"
   viewBox="0 0 5291.3335 5291.3335"
   sodipodi:docname="snowflake-1.svg"
   inkscape:version="1.3 (0e150ed6c4, 2023-07-21)"
   xmlns:inkscape="http://www.inkscape.org/namespaces/inkscape"
   xmlns:sodipodi="http://sodipodi.sourceforge.net/DTD/sodipodi-0.dtd"
   xmlns="http://www.w3.org/2000/svg"
   xmlns:svg="http://www.w3.org/2000/svg">
  <defs
     id="defs1" />
  <sodipodi:namedview
     id="namedview1"
     pagecolor="#000000"
     bordercolor="#000000"
     borderopacity="0.25"
     inkscape:showpageshadow="2"
     inkscape:pageopacity="0.0"
     inkscape:pagecheckerboard="0"
     inkscape:deskcolor="#d1d1d1"
     showborder="false"
     shape-rendering="crispEdges"
     inkscape:zoom="0.15364747"
     inkscape:cx="2648.9209"
     inkscape:cy="2645.6667"
     inkscape:window-width="1920"
     inkscape:window-height="1009"
     inkscape:window-x="-8"
     inkscape:window-y="-8"
     inkscape:window-maximized="1"
     inkscape:current-layer="g1"
     labelstyle="default">
    <inkscape:page
       x="0"
       y="0"
       inkscape:label="1"
       id="page1"
       width="5291.3335"
       height="5291.3335"
       margin="0"
       bleed="0" />
  </sodipodi:namedview>
  <g
     id="g1"
     inkscape:groupmode="layer"
     inkscape:label="1">
    <g
       id="g40">
      <path
         id="path3"
         d="m 17940.3,31721.9 c -29.5,110.3 -142.9,175.8 -253.2,146.3 l -609.4,-163.3 -254.7,147.1 517.2,138.5 c 110.3,29.6 175.7,143 146.1,253.3 -29.5,110.3 -142.9,175.8 -253.2,146.2 l -916.6,-245.6 -550.3,317.7 550.2,317.7 916.7,-245.6 c 110.3,-29.5 223.7,36 253.2,146.3 29.6,110.3 -35.8,223.6 -146.1,253.2 l -517.2,138.6 254.7,147 609.4,-163.2 c 110.3,-29.6 223.7,35.8 253.2,146.1 29.6,110.3 -35.9,223.7 -146.2,253.3 l -209.9,56.3 231.9,133.8 c 98.9,57.1 132.8,183.6 75.7,282.4 -57.1,98.9 -183.6,132.9 -282.5,75.7 l -231.9,-133.8 56.3,209.9 c 29.5,110.3 -35.9,223.7 -146.2,253.2 -110.3,29.6 -223.7,-35.8 -253.3,-146.1 l -163.2,-609.5 -254.8,-147 138.6,517.2 c 29.6,110.3 -35.9,223.7 -146.2,253.2 -110.3,29.6 -223.7,-35.8 -253.3,-146.2 l -245.6,-916.7 -550.3,-317.7 v 635.5 l 671,671 c 80.8,80.8 80.8,211.7 0,292.4 -80.7,80.8 -211.6,80.8 -292.4,0 l -378.6,-378.5 v 294.1 l 446.1,446.1 c 80.7,80.7 80.7,211.6 0,292.4 -80.7,80.7 -211.7,80.7 -292.4,0 l -153.7,-153.6 v 267.7 c 0,114.1 -92.6,206.7 -206.8,206.7 -114.2,0 -206.7,-92.6 -206.7,-206.7 v -267.7 l -153.7,153.6 c -80.7,80.7 -211.7,80.7 -292.4,0 -80.7,-80.8 -80.7,-211.7 0,-292.4 l 446.1,-446.1 v -294.2 l -378.6,378.6 c -80.8,80.8 -211.7,80.8 -292.5,0 -80.7,-80.7 -80.7,-211.6 0,-292.4 l 671.1,-671 v -635.5 l -550.3,317.7 -245.6,916.7 c -29.6,110.4 -143,175.8 -253.3,146.2 -110.3,-29.5 -175.8,-142.9 -146.2,-253.2 l 138.6,-517.2 -254.8,147 -163.2,609.5 c -29.6,110.3 -143,175.7 -253.3,146.1 -110.3,-29.5 -175.8,-142.9 -146.2,-253.2 l 56.2,-209.9 -231.8,133.8 c -98.9,57.2 -225.4,23.2 -282.5,-75.7 -57.1,-98.8 -23.2,-225.3 75.7,-282.4 l 231.9,-133.8 -209.9,-56.3 c -110.3,-29.6 -175.8,-143 -146.2,-253.3 29.5,-110.3 142.9,-175.7 253.2,-146.1 l 609.4,163.2 254.7,-147 -517.2,-138.6 c -110.3,-29.6 -175.7,-142.9 -146.2,-253.2 29.6,-110.3 143,-175.8 253.3,-146.3 l 916.6,245.6 550.3,-317.7 -550.3,-317.7 -916.6,245.6 c -110.3,29.6 -223.7,-35.9 -253.3,-146.2 -29.5,-110.3 35.9,-223.7 146.2,-253.3 l 517.2,-138.5 -254.7,-147.1 -609.4,163.3 c -110.3,29.5 -223.7,-36 -253.2,-146.3 -29.6,-110.2 35.9,-223.6 146.2,-253.1 l 209.9,-56.3 -231.9,-133.9 c -98.9,-57.1 -132.8,-183.5 -75.7,-282.4 57.1,-99 183.6,-132.8 282.5,-75.8 l 231.8,133.9 -56.2,-209.9 c -29.6,-110.3 35.9,-223.6 146.2,-253.2 110.3,-29.5 223.7,35.9 253.3,146.2 l 163.2,609.3 254.8,147.1 -138.6,-517.1 c -29.6,-110.3 35.9,-223.7 146.2,-253.3 110.3,-29.5 223.7,35.9 253.3,146.2 l 245.6,916.7 550.3,317.7 v -635.5 l -671.1,-671 c -80.7,-80.7 -80.7,-211.7 0,-292.4 80.8,-80.8 211.7,-80.8 292.5,0 l 378.6,378.6 v -294.2 l -446.1,-446 c -80.7,-80.8 -80.7,-211.7 0,-292.5 80.7,-80.7 211.7,-80.7 292.4,0 l 153.7,153.7 V 29737 c 0,-114.2 92.5,-206.8 206.7,-206.8 114.2,0 206.8,92.6 206.8,206.8 v 267.7 l 153.7,-153.7 c 80.7,-80.7 211.7,-80.7 292.4,0 80.7,80.8 80.7,211.7 0,292.5 l -446.1,446 v 294.2 l 378.6,-378.6 c 80.8,-80.8 211.7,-80.8 292.4,0 80.8,80.7 80.8,211.7 0,292.4 l -671,671 v 635.5 l 550.3,-317.8 245.6,-916.6 c 29.6,-110.3 143,-175.7 253.3,-146.2 110.3,29.6 175.8,143 146.2,253.3 l -138.6,517.1 254.8,-147.1 163.2,-609.3 c 29.6,-110.3 143,-175.7 253.3,-146.2 110.3,29.6 175.7,142.9 146.2,253.2 l -56.2,209.9 231.8,-133.9 c 98.9,-57 225.4,-23.2 282.5,75.8 57.1,98.9 23.2,225.3 -75.7,282.4 l -231.9,133.9 209.9,56.3 c 110.3,29.5 175.8,142.9 146.2,253.1"
         style="fill:#81a5de;fill-opacity:1;fill-rule:nonzero;stroke:none"
         transform="matrix(0.13333333,0,0,-0.13333333,0,5291.3333)" />
    </g>
    <g
       id="g39">
      <path
         id="path4"
         d="m 27309.3,31858.8 c -29.6,110.3 -143,175.7 -253.3,146.2 l -884.9,-237.2 -1202.5,694.3 1109.3,640.5 918.6,-246.1 c 110.3,-29.6 223.7,35.9 253.2,146.2 29.5,110.3 -35.9,223.7 -146.2,253.2 l -519.1,139.1 434,250.6 c 99,57.1 132.8,183.6 75.7,282.5 -57.1,98.9 -183.5,132.8 -282.4,75.7 l -431.6,-249.2 138,515.2 c 29.6,110.3 -35.8,223.7 -146.1,253.3 -110.3,29.5 -223.7,-36 -253.3,-146.3 l -245.1,-914.6 -1111.8,-641.9 v 1339.6 l 671,671 c 80.8,80.8 80.8,211.7 0,292.4 -80.7,80.8 -211.6,80.8 -292.4,0 l -378.6,-378.6 v 442.6 c 0,114.2 -92.5,206.8 -206.7,206.8 -114.3,0 -206.8,-92.6 -206.8,-206.8 v -442.6 l -378.6,378.6 c -80.8,80.8 -211.7,80.8 -292.4,0 -80.8,-80.7 -80.8,-211.6 0,-292.4 l 671,-671 v -1339.7 l -1100.1,635.2 -263.7,984.2 c -29.6,110.3 -143,175.8 -253.3,146.3 -110.3,-29.6 -175.7,-143 -146.2,-253.3 l 156.7,-584.8 -443.3,256 c -98.9,57.1 -225.4,23.2 -282.5,-75.7 -57.1,-98.9 -23.2,-225.4 75.7,-282.5 l 357.6,-206.4 -449.5,-120.5 c -110.3,-29.5 -175.8,-142.9 -146.2,-253.2 29.5,-110.3 142.9,-175.8 253.2,-146.3 l 849,227.6 1185.8,-684.7 -1163,-671.4 -898.2,240.6 c -110.2,29.6 -223.6,-35.9 -253.2,-146.2 -29.6,-110.3 35.9,-223.7 146.2,-253.2 l 498.7,-133.7 -380.4,-219.6 c -98.9,-57.1 -132.8,-183.6 -75.7,-282.4 57.1,-98.9 183.6,-132.8 282.5,-75.7 l 403.8,233.1 -143.5,-535.6 c -29.6,-110.3 35.9,-223.7 146.2,-253.2 110.3,-29.6 223.7,35.8 253.2,146.1 l 250.6,935.1 1139.6,658 v -1339.6 l -671,-671.1 c -80.8,-80.7 -80.8,-211.6 0,-292.4 80.7,-80.7 211.6,-80.7 292.4,0 l 378.6,378.6 V 29737 c 0,-114.2 92.5,-206.8 206.8,-206.8 114.2,0 206.7,92.6 206.7,206.8 v 442.5 l 378.6,-378.6 c 80.8,-80.7 211.7,-80.7 292.4,0 80.8,80.8 80.8,211.7 0,292.4 l -671,671.1 V 32104 l 1162.4,-671.1 254.1,-948.3 c 29.5,-110.3 142.9,-175.8 253.2,-146.2 110.3,29.5 175.8,142.9 146.3,253.2 l -147.1,548.9 381,-220 c 98.9,-57.1 225.3,-23.2 282.4,75.7 57.1,98.8 23.3,225.3 -75.7,282.4 l -340.9,196.8 485.5,130.1 c 110.3,29.6 175.8,143 146.3,253.3"
         style="fill:#81a5de;fill-opacity:1;fill-rule:nonzero;stroke:none"
         transform="matrix(0.13333333,0,0,-0.13333333,0,5291.3333)" />
    </g>
    <g
       id="g38">
      <path
         id="path8"
         d="m 8731,31278.6 -825.46,476.6 522.46,140 c 110.31,29.5 175.8,142.9 146.22,253.2 -29.54,110.3 -142.94,175.8 -253.24,146.2 l -921.92,-247 -717.96,414.5 717.96,414.5 921.92,-247 c 110.3,-29.6 223.7,35.9 253.24,146.2 29.58,110.3 -35.91,223.7 -146.22,253.3 l -522.46,140 825.46,476.5 c 98.9,57.1 132.8,183.6 75.68,282.5 -57.09,98.9 -183.55,132.8 -282.45,75.7 l -818.73,-472.7 137.16,511.8 c 29.55,110.4 -35.91,223.7 -146.21,253.3 -110.32,29.6 -223.72,-35.9 -253.26,-146.2 l -244.18,-911.4 -724.65,-418.3 v 865.6 l 670.99,671 c 80.77,80.8 80.77,211.7 0,292.5 -80.73,80.7 -211.67,80.7 -292.4,0 l -378.59,-378.6 v 916.5 c 0,114.2 -92.58,206.8 -206.78,206.8 -114.21,0 -206.77,-92.6 -206.77,-206.8 v -916.5 l -378.62,378.6 c -80.73,80.7 -211.66,80.7 -292.4,0 -80.76,-80.8 -80.76,-211.7 0,-292.5 l 671.02,-671 v -865.6 l -724.67,418.3 -244.19,911.4 c -29.57,110.3 -142.93,175.8 -253.24,146.2 -110.31,-29.6 -175.77,-142.9 -146.22,-253.3 l 137.16,-511.8 -818.73,472.7 c -98.89,57.1 -225.36,23.2 -282.44,-75.7 -57.12,-98.9 -23.23,-225.4 75.67,-282.5 l 825.46,-476.5 -522.47,-140 c -110.3,-29.6 -175.79,-143 -146.21,-253.3 29.54,-110.3 142.95,-175.8 253.21,-146.2 l 921.94,247 717.97,-414.5 -717.93,-414.5 -921.98,247 c -110.26,29.6 -223.67,-35.9 -253.21,-146.2 -29.58,-110.3 35.88,-223.6 146.18,-253.2 l 522.5,-140 -825.46,-476.6 c -98.9,-57.1 -132.79,-183.6 -75.67,-282.4 57.08,-98.9 183.55,-132.8 282.44,-75.7 l 818.73,472.7 -137.16,-511.9 c -29.55,-110.3 35.91,-223.7 146.22,-253.2 110.31,-29.6 223.71,35.8 253.24,146.2 l 244.19,911.3 724.67,418.4 v -865.7 l -671.02,-671 c -80.76,-80.8 -80.76,-211.7 0,-292.5 80.74,-80.7 211.67,-80.7 292.4,0 l 378.62,378.6 V 29737 c 0,-114.2 92.56,-206.8 206.77,-206.8 114.2,0 206.78,92.6 206.78,206.8 v 916.4 l 378.59,-378.6 c 80.73,-80.7 211.67,-80.7 292.4,0 80.77,80.8 80.77,211.7 0,292.5 l -670.99,671 v 865.7 l 724.65,-418.4 244.18,-911.3 c 29.54,-110.4 142.94,-175.8 253.26,-146.2 110.3,29.5 175.76,142.9 146.21,253.2 l -137.16,511.9 818.73,-472.7 c 98.9,-57.1 225.36,-23.2 282.45,75.7 57.12,98.8 23.22,225.3 -75.68,282.4"
         style="fill:#81a5de;fill-opacity:1;fill-rule:nonzero;stroke:none"
         transform="matrix(0.13333333,0,0,-0.13333333,0,5291.3333)" />
    </g>
    <g
       id="g45">
      <path
         id="path9"
         style="fill:#81a5de;fill-opacity:1;fill-rule:nonzero;stroke:none"
         d="M 15339.507 27374.498 C 15225.307 27374.498 15132.701 27281.905 15132.701 27167.706 L 15132.701 26725.205 L 14754.097 27103.794 C 14673.397 27184.494 14542.399 27184.494 14461.7 27103.794 C 14380.9 27022.994 14380.9 26892.094 14461.7 26811.294 L 15132.701 26140.293 L 15132.701 25229.893 L 14677.002 26009.307 C 14619.502 26107.807 14492.799 26140.999 14394.2 26083.399 C 14295.6 26025.699 14262.505 25899.093 14320.005 25800.494 L 14788.301 24999.502 L 14032.603 25435.806 L 13768.902 26420.093 C 13739.302 26530.393 13626.003 26595.799 13515.703 26566.299 C 13405.304 26536.699 13339.895 26423.398 13369.395 26312.998 L 13526.104 25728.204 L 13082.798 25984.2 C 12983.898 26041.3 12857.506 26007.396 12800.406 25908.496 C 12743.206 25809.597 12777.206 25683.204 12876.006 25626.104 L 13233.604 25419.605 L 12784.102 25299.107 C 12673.802 25269.607 12608.296 25156.194 12637.896 25045.894 C 12667.396 24935.594 12780.794 24870.103 12891.094 24899.703 L 13740.103 25127.193 L 14556.402 24655.894 L 13614.903 24655.894 C 13500.703 24655.894 13408.096 24563.302 13408.096 24449.102 C 13408.096 24334.902 13500.703 24242.398 13614.903 24242.398 L 14579.195 24242.398 L 13762.998 23771.099 L 12864.8 24011.802 C 12754.5 24041.302 12641.099 23975.893 12611.499 23865.494 C 12581.999 23755.194 12647.406 23641.895 12757.705 23612.295 L 13256.499 23478.702 L 12876.006 23259.004 C 12777.206 23201.904 12743.206 23075.497 12800.406 22976.597 C 12857.506 22877.697 12983.898 22843.794 13082.798 22900.894 L 13486.597 23133.994 L 13343.101 22598.404 C 13313.601 22488.104 13379.007 22374.705 13489.307 22345.205 C 13599.607 22315.605 13712.993 22380.997 13742.593 22491.397 L 13993.096 23426.494 L 14736.006 23855.401 L 14241.094 23008.794 C 14183.394 22910.294 14216.601 22783.594 14315.201 22726.094 C 14413.8 22668.394 14540.506 22701.601 14598.106 22800.201 L 15132.701 23714.6 L 15132.701 22744.8 L 14461.7 22073.799 C 14380.9 21992.999 14380.9 21862.099 14461.7 21781.299 C 14542.399 21700.599 14673.397 21700.599 14754.097 21781.299 L 15132.701 22159.903 L 15132.701 21717.403 C 15132.701 21603.203 15225.307 21510.596 15339.507 21510.596 C 15453.707 21510.596 15546.299 21603.203 15546.299 21717.403 L 15546.299 22159.903 L 15924.903 21781.299 C 16005.603 21700.599 16136.498 21700.599 16217.198 21781.299 C 16297.998 21862.099 16297.998 21992.999 16217.198 22073.799 L 15546.299 22744.8 L 15546.299 23703.203 L 16074.302 22800.201 C 16131.902 22701.601 16258.505 22668.394 16357.105 22726.094 C 16455.705 22783.594 16488.897 22910.294 16431.197 23008.794 L 15932.901 23861.202 L 16708.594 23413.296 L 16962.701 22465 C 16992.201 22354.7 17105.602 22289.294 17216.001 22318.794 C 17326.301 22348.394 17391.693 22461.695 17362.193 22572.095 L 17215.093 23120.899 L 17596.099 22900.894 C 17694.999 22843.794 17821.494 22877.697 17878.594 22976.597 C 17935.694 23075.497 17901.806 23201.904 17802.906 23259.004 L 17462.007 23455.894 L 17947.5 23586.001 C 18057.8 23615.501 18123.306 23728.9 18093.707 23839.2 C 18064.207 23949.499 17950.793 24015.006 17840.494 23985.406 L 16955.494 23748.306 L 16099.703 24242.398 L 17090.406 24242.398 C 17204.606 24242.398 17297.198 24334.902 17297.198 24449.102 C 17297.198 24563.302 17204.606 24655.894 17090.406 24655.894 L 16122.598 24655.894 L 16862.403 25082.998 L 17780.904 24836.905 C 17891.204 24807.305 18004.605 24872.796 18034.205 24983.096 C 18063.705 25093.396 17998.196 25206.797 17887.896 25236.397 L 17368.799 25375.498 L 17802.906 25626.104 C 17901.806 25683.204 17935.694 25809.597 17878.594 25908.496 C 17821.494 26007.396 17694.999 26041.3 17596.099 25984.2 L 17164.6 25735 L 17302.603 26250.201 C 17332.103 26360.6 17266.697 26473.901 17156.397 26503.501 C 17046.097 26533.001 16932.696 26467.595 16903.096 26357.295 L 16658.101 25442.603 L 15880.606 24993.702 L 16352.3 25800.494 C 16409.9 25899.093 16376.706 26025.699 16278.106 26083.399 C 16179.506 26140.999 16052.803 26107.807 15995.303 26009.307 L 15546.299 25241.202 L 15546.299 26140.293 L 16217.198 26811.294 C 16297.998 26892.094 16297.998 27022.994 16217.198 27103.794 C 16136.498 27184.494 16005.603 27184.494 15924.903 27103.794 L 15546.299 26725.205 L 15546.299 27167.706 C 15546.299 27281.905 15453.707 27374.498 15339.507 27374.498 z M 15330.293 24906.602 C 15586.593 24906.602 15794.4 24698.795 15794.4 24442.495 C 15794.4 24186.196 15586.593 23978.506 15330.293 23978.506 C 15073.994 23978.506 14866.202 24186.196 14866.202 24442.495 C 14866.202 24698.795 15073.994 24906.602 15330.293 24906.602 z "
         transform="matrix(0.13333333,0,0,-0.13333333,0,5291.3333)" />
    </g>
    <g
       id="g36">
      <path
         id="path11"
         d="m 25872.9,24104.3 -833.3,340.5 830.1,348.5 970.4,-339.9 z m 309.5,-1260.5 -930.7,436.9 -348.5,830 833.4,-340.5 z m -1603.3,-673.2 -349.2,967.2 340.5,833.3 348.5,-830.1 z m -683.3,1103.6 -926.4,-445.8 437,930.7 830,348.4 z m -1599.5,1157.5 967,349.1 833.4,-340.5 -830,-348.5 z m 657.7,1609.7 930.6,-436.9 348.6,-830.1 -833.3,340.5 z m 1603.3,673.1 349.2,-967.1 -340.6,-833.4 -348.5,830.1 z m 683.2,-1103.5 926.5,445.8 -436.9,-930.7 -830.1,-348.6 z m 2197.8,-984.7 -1326.1,464.4 597.1,1271.9 c 32.4,69.2 17.8,151.2 -36.4,204.9 -54.2,53.7 -136.4,67.5 -205.2,34.4 l -1266.1,-609.2 -477.1,1321.5 c -26,71.8 -94.8,119.6 -170.6,119.2 -76.4,-0.4 -144.2,-48.7 -169.5,-120.8 l -464.4,-1326 -1271.9,597 c -69.1,32.5 -151.1,17.9 -204.9,-36.3 -53.7,-54.3 -67.5,-136.4 -34.4,-205.2 l 609.3,-1266.1 -1321.6,-477.2 c -71.8,-25.9 -119.5,-94.2 -119.2,-170.6 0.4,-76.3 48.8,-144.2 120.8,-169.4 l 1326.2,-464.4 -597.1,-1272 c -32.5,-69.1 -17.9,-151.1 36.3,-204.9 54.3,-53.7 136.5,-67.5 205.2,-34.3 l 1266.1,609.3 477.2,-1321.6 c 25.8,-71.6 93.7,-119.2 169.7,-119.2 0.3,0 0.6,0 0.9,0 76.3,0.4 144.2,48.8 169.4,120.8 l 464.4,1326.1 1271.9,-597.1 c 25.5,-12 52.4,-17.5 79.7,-17.1 98.3,1.5 177.6,81.7 177.6,180.4 0,31.2 -7.9,60.5 -21.8,86.1 l -605.5,1258.3 1321.6,477.1 c 71.8,25.9 119.5,94.2 119.1,170.5 -0.3,76.4 -48.7,144.2 -120.7,169.5"
         style="fill:#81a5de;fill-opacity:1;fill-rule:nonzero;stroke:none"
         transform="matrix(0.13333333,0,0,-0.13333333,0,5291.3333)" />
    </g>
    <g
       id="g35">
      <path
         id="path12"
         d="m 34310.2,23267.3 -463.3,339.2 v 477.9 l 399.6,-230.7 z m -1357.1,0 62.6,576 417.7,241.1 v -465.5 z m -678.6,1175.3 539.8,238 412.3,-238 -412.2,-238.1 z m 678.6,1175.3 480.3,-351.6 v -465.6 l -417.7,241.1 z m 1357.1,0 -63.8,-586.5 -399.5,-230.7 v 478 z m 678.6,-1175.3 -530.2,-233.8 -404.9,233.8 404.9,233.7 z m 1405.6,-603.4 c -29.6,110.3 -142.9,175.8 -253.3,146.2 l -884.9,-237.1 -410.3,236.9 662.9,292.2 c 65.5,28.9 107.7,93.6 107.7,165.1 0,71.5 -42.2,136.3 -107.7,165.1 l -662.9,292.4 317.1,183 918.6,-246.1 c 110.3,-29.6 223.7,35.9 253.3,146.2 29.5,110.3 -36,223.7 -146.3,253.3 l -519.1,139.1 434.1,250.6 c 98.9,57.1 132.8,183.5 75.6,282.4 -57,98.9 -183.5,132.8 -282.4,75.7 l -431.6,-249.2 138,515.2 c 29.6,110.4 -35.8,223.7 -146.1,253.3 -110.4,29.5 -223.8,-35.9 -253.3,-146.2 l -245.1,-914.7 -324.9,-187.6 79.4,730.7 c 7.8,71.1 -27.2,140 -89.1,175.7 -61.9,35.8 -139.1,31.6 -196.8,-10.6 l -580.4,-424.9 v 414.4 l 671,671 c 80.8,80.8 80.8,211.7 0,292.5 -80.7,80.7 -211.7,80.7 -292.4,0 l -378.6,-378.6 v 442.5 c 0,114.2 -92.6,206.8 -206.8,206.8 -114.2,0 -206.7,-92.6 -206.7,-206.8 v -442.5 l -378.6,378.6 c -80.8,80.7 -211.7,80.7 -292.4,0 -80.8,-80.8 -80.8,-211.7 0,-292.5 l 671,-671 v -426.8 l -597.4,437.3 c -57.6,42.2 -134.8,46.4 -196.8,10.6 -61.9,-35.7 -96.9,-104.6 -89.1,-175.7 l 78.3,-720.3 -295.1,170.4 -263.7,984.3 c -29.6,110.3 -143,175.7 -253.3,146.2 -110.3,-29.6 -175.7,-142.9 -146.2,-253.3 l 156.7,-584.8 -443.3,256 c -98.9,57.1 -225.4,23.2 -282.5,-75.7 -57.1,-98.9 -23.2,-225.3 75.7,-282.4 l 357.6,-206.5 -449.5,-120.5 c -110.3,-29.5 -175.8,-142.9 -146.3,-253.2 29.6,-110.3 143,-175.8 253.3,-146.2 l 849,227.5 386.2,-223 -672.5,-296.6 c -65.4,-28.8 -107.6,-93.6 -107.6,-165.1 0,-71.5 42.2,-136.2 107.6,-165.1 l 672.6,-296.5 -363.5,-209.8 -898.2,240.7 c -110.3,29.5 -223.7,-35.9 -253.2,-146.3 -29.5,-110.3 35.9,-223.6 146.2,-253.2 l 498.7,-133.6 -380.4,-219.7 c -98.9,-57.1 -132.8,-183.5 -75.7,-282.4 57.1,-98.9 183.6,-132.8 282.5,-75.7 l 403.8,233.2 -143.5,-535.7 c -29.6,-110.3 35.9,-223.7 146.2,-253.2 110.3,-29.6 223.7,35.8 253.2,146.2 l 250.6,935.1 334.6,193.2 -78.3,-720.2 c -7.8,-71.1 27.2,-140 89.1,-175.8 28,-16.2 59.2,-24.2 90.2,-24.2 37.6,0 75,11.7 106.6,34.9 l 597.4,437.2 v -426.8 l -671,-671 c -80.8,-80.8 -80.8,-211.7 0,-292.5 80.7,-80.7 211.6,-80.7 292.4,0 l 378.6,378.6 v -442.5 c 0,-114.2 92.5,-206.8 206.7,-206.8 114.2,0 206.8,92.6 206.8,206.8 v 442.5 l 378.6,-378.6 c 80.7,-80.7 211.7,-80.7 292.4,0 80.8,80.8 80.8,211.7 0,292.5 l -671,671 v 414.4 l 580.4,-424.8 c 57.7,-42.3 134.9,-46.5 196.8,-10.7 61.9,35.7 96.9,104.7 89.1,175.8 l -79.4,730.6 375.5,-216.8 254.1,-948.3 c 29.5,-110.3 142.9,-175.7 253.2,-146.2 110.3,29.6 175.8,142.9 146.2,253.3 l -147,548.8 381,-220 c 98.9,-57.1 225.4,-23.2 282.4,75.7 57.2,98.9 23.3,225.3 -75.6,282.4 l -340.9,196.9 485.5,130.1 c 110.3,29.5 175.8,142.9 146.2,253.2"
         style="fill:#81a5de;fill-opacity:1;fill-rule:nonzero;stroke:none"
         transform="matrix(0.13333333,0,0,-0.13333333,0,5291.3333)" />
    </g>
    <g
       id="g34">
      <path
         id="path13"
         d="m 9008.67,23839.2 c -29.54,110.3 -142.95,175.8 -253.25,146.2 l -884.94,-237.1 -855.8,494.1 h 990.67 c 114.24,0 206.81,92.5 206.81,206.7 0,114.2 -92.57,206.8 -206.81,206.8 h -967.83 l 739.78,427.1 918.57,-246.1 c 110.32,-29.6 223.71,35.9 253.25,146.2 29.54,110.3 -35.95,223.7 -146.26,253.3 l -519.08,139.1 434.07,250.6 c 98.89,57.1 132.8,183.5 75.68,282.4 -57.09,98.9 -183.56,132.8 -282.45,75.7 l -431.59,-249.2 138.03,515.2 c 29.55,110.4 -35.86,223.7 -146.17,253.3 -110.32,29.5 -223.7,-35.9 -253.26,-146.2 l -245.07,-914.7 -777.47,-448.9 471.72,806.8 c 57.55,98.6 24.38,225.2 -74.2,282.9 -98.59,57.6 -225.3,24.4 -282.85,-74.1 l -449.02,-768.1 v 899.1 l 671,671 c 80.77,80.8 80.77,211.7 0,292.5 -80.73,80.7 -211.67,80.7 -292.4,0 l -378.6,-378.6 v 442.5 c 0,114.2 -92.57,206.8 -206.78,206.8 -114.2,0 -206.77,-92.6 -206.77,-206.8 v -442.5 l -378.6,378.6 c -80.74,80.7 -211.67,80.7 -292.4,0 -80.77,-80.8 -80.77,-211.7 0,-292.5 l 671,-671 v -910.4 l -455.67,779.4 c -57.55,98.5 -184.24,131.7 -282.83,74.1 -98.58,-57.7 -131.75,-184.3 -74.21,-282.9 l 468.34,-801 -755.71,436.3 -263.72,984.3 c -29.58,110.3 -142.93,175.7 -253.24,146.2 -110.32,-29.6 -175.78,-142.9 -146.23,-253.3 l 156.69,-584.7 -443.29,255.9 c -98.9,57.1 -225.37,23.2 -282.46,-75.7 -57.12,-98.9 -23.22,-225.3 75.68,-282.4 l 357.59,-206.5 -449.55,-120.5 c -110.3,-29.5 -175.79,-142.9 -146.22,-253.2 29.56,-110.3 142.94,-175.8 253.22,-146.2 l 849.02,227.5 816.27,-471.3 H 4529.8 c -114.17,0 -206.73,-92.6 -206.73,-206.8 0,-114.2 92.56,-206.7 206.73,-206.7 h 964.37 l -816.25,-471.3 -898.19,240.7 c -110.31,29.5 -223.71,-35.9 -253.25,-146.3 -29.54,-110.3 35.86,-223.6 146.18,-253.2 L 4171.4,23478.7 3791,23259 c -98.9,-57.1 -132.8,-183.5 -75.68,-282.4 57.09,-98.9 183.56,-132.8 282.46,-75.7 l 403.79,233.1 -143.5,-535.6 c -29.53,-110.3 35.88,-223.7 146.19,-253.2 110.32,-29.6 223.7,35.8 253.25,146.2 l 250.54,935.1 742.92,428.9 -494.94,-846.6 c -57.7,-98.5 -24.5,-225.2 74.14,-282.7 98.57,-57.7 225.24,-24.5 282.82,74.1 l 534.66,914.4 v -969.8 l -671,-671 c -80.77,-80.8 -80.77,-211.7 0,-292.5 80.73,-80.7 211.66,-80.7 292.4,0 l 378.6,378.6 v -442.5 c 0,-114.2 92.57,-206.8 206.77,-206.8 114.21,0 206.78,92.6 206.78,206.8 v 442.5 l 378.6,-378.6 c 80.73,-80.7 211.67,-80.7 292.4,0 80.77,80.8 80.77,211.7 0,292.5 l -671,671 v 958.4 l 528.02,-903 c 57.59,-98.6 184.25,-131.8 282.83,-74.1 98.62,57.5 131.84,184.2 74.14,282.7 l -498.32,852.4 775.7,-447.9 254.08,-948.3 c 29.54,-110.3 142.94,-175.7 253.25,-146.2 110.31,29.6 175.76,142.9 146.22,253.3 l -147.05,548.8 381.01,-220 c 98.89,-57.1 225.36,-23.2 282.45,75.7 57.12,98.9 23.21,225.3 -75.68,282.4 l -340.91,196.9 485.52,130.1 c 110.3,29.5 175.79,142.9 146.21,253.2"
         style="fill:#81a5de;fill-opacity:1;fill-rule:nonzero;stroke:none"
         transform="matrix(0.13333333,0,0,-0.13333333,0,5291.3333)" />
    </g>
    <g
       id="g33">
      <path
         id="path14"
         d="m 18284.6,15989.4 c 0,114.3 -92.6,206.8 -206.8,206.8 h -403 l 378.6,378.7 c 80.7,80.6 80.7,211.6 0,292.3 -80.8,80.8 -211.7,80.8 -292.5,0 l -671,-671 h -1238 l 931.2,931.3 h 949 c 114.2,0.1 206.7,92.6 206.7,206.8 0,114.2 -92.5,206.7 -206.7,206.7 h -818.5 c -1.6,1.6 -2.9,3.4 -4.5,5 -1.6,1.5 -3.3,2.8 -4.9,4.4 v 818.5 c 0,114.2 -92.5,206.7 -206.7,206.8 -114.3,-0.1 -206.8,-92.6 -206.8,-206.8 v -949 l -931.3,-931.3 v 1198.6 l 671,671.1 c 80.8,80.7 80.8,211.6 0,292.4 -80.8,80.7 -211.7,80.7 -292.4,0 l -378.6,-378.7 v 442.6 c 0,114.2 -92.6,206.8 -206.8,206.8 -114.2,0 -206.8,-92.6 -206.8,-206.8 v -442.5 l -378.6,378.6 c -80.7,80.7 -211.7,80.7 -292.4,0 -80.7,-80.8 -80.7,-211.7 0,-292.4 l 671,-671.1 v -1198.6 l -931.3,931.3 v 949 c 0,114.2 -92.6,206.8 -206.8,206.8 -114.2,0 -206.7,-92.6 -206.7,-206.8 v -818.4 c -1.7,-1.5 -3.4,-2.9 -5,-4.5 -1.6,-1.5 -2.9,-3.3 -4.5,-4.9 h -818.4 c -114.2,0 -206.8,-92.5 -206.8,-206.8 0,-114.2 92.6,-206.7 206.9,-206.7 l 948.9,-0.1 931.3,-931.3 h -1198.5 l -671,671 c -80.8,80.8 -211.7,80.8 -292.5,0 -80.7,-80.7 -80.7,-211.7 0,-292.3 l 378.6,-378.7 h -442.5 c -114.2,0 -206.8,-92.5 -206.8,-206.8 0,-114.1 92.6,-206.7 206.8,-206.7 h 442.6 l -378.7,-378.6 c -80.7,-80.8 -80.7,-211.7 0,-292.5 80.8,-80.7 211.7,-80.7 292.5,0 l 671,671.1 h 1198.6 l -931.3,-931.3 h -949 c -114.3,0 -206.9,-92.6 -206.9,-206.8 0,-114.2 92.6,-206.8 206.9,-206.8 h 818.4 c 1.5,-1.6 2.9,-3.3 4.4,-4.9 1.6,-1.6 3.3,-2.9 5,-4.4 V 13610 c 0,-114.2 92.5,-206.8 206.8,-206.8 114.1,0 206.7,92.6 206.7,206.8 l 0.1,949 931.2,931.2 v -1277.4 l -671,-671.1 c -80.7,-80.7 -80.7,-211.7 0,-292.4 80.7,-80.8 211.7,-80.8 292.4,0 l 378.6,378.5 v -363.5 c 0,-114.2 92.6,-206.8 206.8,-206.8 114.2,0 206.8,92.6 206.8,206.8 v 363.6 l 378.6,-378.6 c 80.7,-80.8 211.6,-80.8 292.4,0 80.8,80.7 80.8,211.7 0,292.4 l -671,671.1 v 1277.5 l 931.3,-931.3 v -949 c 0,-114.2 92.5,-206.8 206.8,-206.8 114.1,0 206.7,92.6 206.7,206.8 v 818.6 c 1.6,1.5 3.3,2.8 4.9,4.4 1.5,1.6 2.9,3.2 4.4,4.8 h 818.6 c 114.1,0 206.7,92.6 206.7,206.8 0,114.2 -92.5,206.8 -206.8,206.8 h -948.9 l -931.4,931.3 h 1238.2 l 671,-671.1 c 80.8,-80.7 211.7,-80.7 292.5,0 80.7,80.8 80.7,211.7 0,292.5 l -378.7,378.6 h 403.1 c 114.2,0 206.8,92.6 206.8,206.7"
         style="fill:#81a5de;fill-opacity:1;fill-rule:nonzero;stroke:none"
         transform="matrix(0.13333333,0,0,-0.13333333,0,5291.3333)" />
    </g>
    <g
       id="g32">
      <path
         id="path15"
         d="m 27579.9,15238.6 c -28.8,110.4 -141.7,176.8 -252.2,148 l -918.5,-238.7 -278.9,163.8 518.2,134.7 c 110.5,28.8 176.8,141.7 148.1,252.2 -28.7,110.5 -141.6,176.8 -252.2,148.1 l -918.5,-238.7 -649.5,381.4 615.6,361.6 918.4,-238.8 c 110.5,-28.7 223.4,37.5 252.1,148.1 28.7,110.5 -37.6,223.4 -148.1,252.1 l -518.2,134.7 313.1,183.9 918.4,-238.8 c 110.5,-28.7 223.4,37.7 252.2,148.1 28.7,110.5 -37.7,223.4 -148.1,252.2 l -518.2,134.7 75.1,44.1 c 98.5,57.8 131.4,184.6 73.5,283 -57.8,98.5 -184.5,131.5 -283,73.6 l -75,-44.1 134.7,518.2 c 28.7,110.5 -37.7,223.4 -148.1,252.2 -110.6,28.7 -223.5,-37.7 -252.2,-148.2 l -238.7,-918.4 -313.1,-183.9 134.7,518.2 c 28.7,110.5 -37.6,223.5 -148.1,252.2 -110.6,28.7 -223.4,-37.6 -252.2,-148.1 l -238.7,-918.5 -607.6,-356.8 v 704.6 l 671,671 c 80.8,80.8 80.8,211.6 0,292.4 -80.7,80.8 -211.6,80.8 -292.3,0 l -378.7,-378.6 v 363.1 l 671,671 c 80.8,80.8 80.8,211.7 0,292.4 -80.7,80.7 -211.6,80.7 -292.3,0 l -378.7,-378.6 v 87.1 c 0,114.2 -92.5,206.8 -206.7,206.8 -114.3,0 -206.8,-92.6 -206.8,-206.8 v -87.1 l -378.6,378.6 c -80.7,80.7 -211.7,80.7 -292.4,0 -80.8,-80.7 -80.8,-211.6 0,-292.4 l 671,-671 v -363.1 l -378.6,378.6 c -80.7,80.8 -211.7,80.8 -292.4,0 -80.8,-80.8 -80.8,-211.6 0,-292.4 l 671,-671 v -704.6 l -607.5,356.8 -238.8,918.5 c -28.8,110.5 -141.6,176.8 -252.2,148.1 -110.4,-28.7 -176.7,-141.7 -148,-252.2 l 134.7,-518.2 -313.1,183.9 -238.7,918.4 c -28.8,110.5 -141.6,176.9 -252.2,148.2 -110.5,-28.8 -176.8,-141.7 -148.1,-252.2 l 134.7,-518.2 -75.1,44.1 c -98.4,57.9 -225.1,24.9 -282.9,-73.6 -57.9,-98.4 -25,-225.2 73.5,-283 l 75.1,-44.1 -518.2,-134.7 c -110.5,-28.8 -176.8,-141.7 -148.1,-252.2 28.7,-110.4 141.6,-176.8 252.1,-148.1 l 918.4,238.8 313.1,-183.9 -518.2,-134.7 c -110.5,-28.7 -176.8,-141.6 -148.1,-252.1 28.8,-110.6 141.7,-176.8 252.2,-148.1 l 918.4,238.8 615.5,-361.5 -649.5,-381.5 -918.5,238.7 c -110.5,28.7 -223.4,-37.6 -252.1,-148.1 -28.8,-110.5 37.6,-223.4 148.1,-252.2 l 518.2,-134.7 -279,-163.8 -918.5,238.7 c -110.5,28.8 -223.4,-37.6 -252.1,-148 -28.7,-110.6 37.6,-223.5 148.1,-252.2 l 518.2,-134.7 -143.3,-84.2 c -98.4,-57.7 -131.3,-184.5 -73.5,-283 57.8,-98.4 184.6,-131.3 283,-73.5 l 143.2,84.1 -134.7,-518.2 c -28.7,-110.5 37.6,-223.4 148.1,-252.1 110.5,-28.8 223.4,37.5 252.2,148.1 l 238.8,918.4 278.9,163.9 -134.7,-518.2 c -28.7,-110.5 37.6,-223.5 148.1,-252.2 110.5,-28.7 223.4,37.5 252.1,148.1 l 238.8,918.5 641.6,376.8 v -744.1 l -671,-671 c -80.8,-80.8 -80.8,-211.7 0,-292.4 80.7,-80.8 211.7,-80.8 292.4,0 l 378.6,378.5 v -323.5 l -671,-671 c -80.8,-80.8 -80.8,-211.7 0,-292.4 80.7,-80.8 211.7,-80.8 292.4,0 l 378.6,378.6 v -166.1 c 0,-114.2 92.5,-206.8 206.8,-206.8 114.2,0 206.7,92.6 206.7,206.8 v 166.1 l 378.7,-378.6 c 80.7,-80.8 211.6,-80.8 292.3,0 80.8,80.7 80.8,211.6 0,292.4 l -671,671 v 323.6 l 378.7,-378.6 c 80.7,-80.8 211.6,-80.8 292.3,0 80.8,80.7 80.8,211.6 0,292.4 l -671,671 v 744.1 l 641.6,-376.8 238.8,-918.5 c 28.8,-110.6 141.6,-176.8 252.2,-148.1 110.4,28.7 176.8,141.7 148,252.2 l -134.7,518.2 279,-163.9 238.8,-918.4 c 28.7,-110.6 141.6,-176.9 252.2,-148.1 110.5,28.7 176.8,141.6 148.1,252.1 l -134.7,518.2 143.1,-84.1 c 98.5,-57.8 225.2,-24.9 283.1,73.5 57.8,98.5 24.8,225.3 -73.6,283 l -143.2,84.2 518.2,134.7 c 110.5,28.7 176.8,141.6 148.1,252.2"
         style="fill:#81a5de;fill-opacity:1;fill-rule:nonzero;stroke:none"
         transform="matrix(0.13333333,0,0,-0.13333333,0,5291.3333)" />
    </g>
    <g
       id="g31">
      <path
         id="path16"
         d="m 36585.2,15989.4 c 0,114.3 -92.5,206.8 -206.7,206.8 h -403.1 l 378.6,378.7 c 80.7,80.6 80.7,211.6 0,292.3 -80.7,80.8 -211.6,80.8 -292.4,0 l -671,-671 h -1238.1 l 586.7,586.7 h 630.8 c 114.2,0 206.7,92.6 206.7,206.7 0,114.2 -92.5,206.9 -206.7,206.8 l -509.7,0.1 v 509.6 c 0,114.2 -92.6,206.8 -206.8,206.8 -114.2,0 -206.8,-92.6 -206.8,-206.8 v -630.9 l -586.7,-586.6 v 1198.6 l 671.1,671.1 c 80.7,80.7 80.7,211.6 0,292.4 -80.8,80.7 -211.7,80.7 -292.5,0 l -378.6,-378.6 v 442.5 c 0,114.2 -92.5,206.8 -206.7,206.8 -114.2,0 -206.8,-92.6 -206.8,-206.8 v -442.5 l -378.6,378.6 c -80.7,80.7 -211.7,80.7 -292.4,0 -80.7,-80.8 -80.7,-211.7 0,-292.4 l 671,-671.1 v -1198.6 l -586.7,586.7 v 630.8 c 0.1,114.2 -92.6,206.8 -206.7,206.8 -114.2,0 -206.8,-92.6 -206.8,-206.8 v -509.7 h -509.7 c -114.2,0 -206.7,-92.6 -206.7,-206.8 -0.1,-114.2 92.5,-206.7 206.7,-206.7 h 630.8 l 586.6,-586.7 h -1198.4 l -671,671 c -80.8,80.8 -211.7,80.8 -292.5,0 -80.7,-80.7 -80.7,-211.7 0,-292.3 l 378.6,-378.7 h -442.5 c -114.2,0 -206.8,-92.5 -206.8,-206.8 0,-114.1 92.6,-206.7 206.8,-206.7 h 442.6 l -378.7,-378.6 c -80.7,-80.8 -80.7,-211.7 0,-292.5 80.8,-80.7 211.7,-80.7 292.5,0 l 671,671.1 h 1198.5 l -586.7,-586.7 h -630.8 c -114.2,0 -206.8,-92.6 -206.7,-206.8 -0.1,-114.2 92.5,-206.8 206.7,-206.7 l 509.7,-0.1 v -509.6 c 0,-114.2 92.5,-206.8 206.8,-206.8 114.1,0 206.8,92.6 206.7,206.7 v 630.9 l 586.7,586.6 v -1277.4 l -671,-671.1 c -80.7,-80.7 -80.7,-211.7 0,-292.4 80.7,-80.8 211.7,-80.8 292.4,0 l 378.6,378.5 v -363.5 c 0,-114.2 92.6,-206.8 206.8,-206.8 114.2,0 206.7,92.6 206.7,206.8 v 363.6 l 378.6,-378.6 c 80.8,-80.8 211.7,-80.8 292.5,0 80.7,80.7 80.7,211.7 0,292.4 l -671.1,671.1 v 1277.4 l 586.7,-586.7 v -630.8 c 0,-114.1 92.6,-206.8 206.8,-206.7 114.2,-0.1 206.8,92.6 206.8,206.7 v 509.7 h 509.6 c 114.3,0 206.8,92.6 206.8,206.8 0,114.2 -92.5,206.8 -206.7,206.7 h -630.8 l -586.8,586.8 h 1238.2 l 671,-671.1 c 80.8,-80.7 211.7,-80.7 292.4,0 80.7,80.8 80.7,211.7 0,292.5 l -378.6,378.6 h 403.1 c 114.2,0 206.7,92.6 206.7,206.7"
         style="fill:#81a5de;fill-opacity:1;fill-rule:nonzero;stroke:none"
         transform="matrix(0.13333333,0,0,-0.13333333,0,5291.3333)" />
    </g>
    <g
       id="g30">
      <path
         id="path18"
         d="m 17023.9,9074.3 c 35,-37.8 84.9,-61.6 140.5,-61.6 h 653.3 c 105.8,0 191.6,85.7 191.6,191.5 0,105.9 -85.8,191.6 -191.6,191.6 h -472.2 v 472.3 c 0,105.7 -85.8,191.5 -191.6,191.5 -105.8,0 -191.6,-85.8 -191.6,-191.6 v -653.3 c 0,-55.6 23.8,-105.4 61.6,-140.4"
         style="fill:#81a5de;fill-opacity:1;fill-rule:nonzero;stroke:none"
         transform="matrix(0.13333333,0,0,-0.13333333,0,5291.3333)" />
      <path
         id="path19"
         d="m 17836,5799.5 h -653.2 c -55.6,0 -105.6,-23.9 -140.6,-61.6 -37.7,-35 -61.5,-84.9 -61.5,-140.5 v -653.3 c 0,-105.8 85.7,-191.6 191.5,-191.6 105.9,0 191.6,85.8 191.6,191.6 v 472.2 h 472.2 c 105.8,0 191.6,85.8 191.6,191.6 0,105.8 -85.8,191.6 -191.6,191.6"
         style="fill:#81a5de;fill-opacity:1;fill-rule:nonzero;stroke:none"
         transform="matrix(0.13333333,0,0,-0.13333333,0,5291.3333)" />
      <path
         id="path20"
         d="m 13684.7,5737.9 c -35,37.7 -84.9,61.6 -140.5,61.6 H 12891 c -105.9,0 -191.7,-85.8 -191.7,-191.6 0,-105.8 85.8,-191.6 191.7,-191.6 h 472.2 v -472.2 c 0,-105.8 85.7,-191.6 191.5,-191.6 105.9,0 191.6,85.8 191.6,191.6 v 653.2 c 0,55.6 -23.8,105.6 -61.6,140.6"
         style="fill:#81a5de;fill-opacity:1;fill-rule:nonzero;stroke:none"
         transform="matrix(0.13333333,0,0,-0.13333333,0,5291.3333)" />
      <path
         id="path21"
         d="m 12872.6,9049.2 h 653.3 c 55.6,0 105.5,23.9 140.5,61.6 37.7,35 61.6,84.9 61.6,140.5 v 653.3 c 0,105.8 -85.8,191.6 -191.6,191.6 -105.9,0 -191.6,-85.8 -191.6,-191.6 v -472.2 h -472.3 c -105.7,0 -191.5,-85.8 -191.5,-191.6 0,-105.8 85.8,-191.6 191.6,-191.6"
         style="fill:#81a5de;fill-opacity:1;fill-rule:nonzero;stroke:none"
         transform="matrix(0.13333333,0,0,-0.13333333,0,5291.3333)" />
      <path
         id="path22"
         d="m 18073.3,7416.4 c 0,10.7 -1.1,21.1 -2.8,31.2 l 319.7,319.8 c 74.9,74.7 74.9,196.1 0,270.9 -74.8,74.8 -196.1,74.8 -270.9,0 l -430.5,-430.6 h -180.5 l 350.8,350.8 c 74.8,74.8 74.8,196.1 0,270.9 -74.8,74.8 -196.1,74.8 -270.9,0 l -621.7,-621.7 h -1147.1 l 862.8,862.8 h 879.2 c 105.8,0.1 191.6,85.8 191.6,191.6 0,105.8 -85.8,191.6 -191.6,191.6 h -758.3 c -1.4,1.5 -2.7,3.1 -4.2,4.5 -1.4,1.5 -3,2.7 -4.5,4.1 v 758.4 c 0,105.7 -85.7,191.5 -191.5,191.6 -105.9,-0.1 -191.6,-85.8 -191.6,-191.6 v -879.2 l -862.9,-862.9 v 1110.5 l 621.8,621.7 c 74.8,74.8 74.8,196.1 0,271 -74.9,74.7 -196.2,74.7 -271,0 l -350.8,-350.9 v 248 l 421.3,421.2 c 74.8,74.8 74.8,196.1 0,271 -74.9,74.8 -196.1,74.8 -271,0 l -333.9,-334 -333.9,334 c -74.8,74.8 -196.1,74.8 -270.9,0 -74.8,-74.9 -74.8,-196.2 0,-271 l 405.3,-405.3 V 9531 l -350.8,350.8 c -74.7,74.7 -196.1,74.7 -270.8,0 -74.9,-74.9 -74.9,-196.2 0,-271 l 621.6,-621.7 V 7878.7 l -862.9,862.8 v 879.2 c 0,105.8 -85.7,191.6 -191.6,191.6 -105.8,0 -191.5,-85.8 -191.5,-191.6 v -758.3 c -1.5,-1.4 -3.1,-2.6 -4.6,-4.1 -1.4,-1.5 -2.7,-3.1 -4.1,-4.6 h -758.3 c -105.8,0 -191.6,-85.7 -191.6,-191.6 0,-105.8 85.8,-191.5 191.7,-191.5 l 879.2,-0.1 862.8,-862.8 H 13784 l -621.7,621.7 c -74.8,74.8 -196.1,74.8 -271,0 -74.8,-74.8 -74.8,-196.1 0,-270.9 l 350.8,-350.8 h -249.9 l -406.2,406.2 c -74.8,74.9 -196.1,74.9 -270.9,0 -74.9,-74.8 -74.9,-196.1 0,-270.9 l 325.5,-325.5 c 0,-0.4 -0.1,-0.9 -0.1,-1.4 0,-4.9 0.4,-9.9 0.7,-14.8 l -326.1,-326.1 c -74.9,-74.8 -74.9,-196.1 0,-270.9 74.8,-74.9 196.1,-74.9 270.9,0 l 420.3,420.3 h 235.8 l -350.8,-350.8 c -74.8,-74.8 -74.8,-196.1 0,-270.9 74.9,-74.9 196.2,-74.9 271,0 l 621.7,621.7 h 1110.4 l -862.8,-862.8 h -879.2 c -105.9,0 -191.7,-85.8 -191.7,-191.6 0,-105.8 85.8,-191.7 191.7,-191.6 l 758.3,-0.1 c 1.4,-1.5 2.6,-3 4,-4.5 1.5,-1.4 3.1,-2.7 4.6,-4.1 v -758.3 c 0,-105.8 85.7,-191.6 191.6,-191.6 105.8,0 191.5,85.8 191.5,191.6 l 0.1,879.2 862.8,862.8 V 5770 l -621.6,-621.7 c -74.9,-74.8 -74.9,-196.1 0,-270.9 74.7,-74.8 196.1,-74.8 270.8,0 l 350.8,350.7 V 5035.5 L 14747.8,4618 c -74.9,-74.8 -74.9,-196.1 0,-270.9 74.8,-74.8 196.1,-74.8 270.9,0 l 333.9,333.9 334,-333.9 c 74.7,-74.9 196.1,-74.9 270.9,0 74.8,74.9 74.8,196.1 0,270.9 l -409.1,409.1 v 201.1 l 350.8,-350.8 c 74.8,-74.8 196.1,-74.8 271,0 74.8,74.8 74.8,196.1 0,270.9 l -621.8,621.7 v 1183.7 l 862.9,-862.9 v -879.2 c 0,-105.8 85.7,-191.6 191.6,-191.6 105.7,0 191.5,85.8 191.5,191.6 V 5970 c 1.5,1.4 3.1,2.7 4.5,4.1 1.5,1.4 2.7,3 4.1,4.5 h 758.4 c 105.7,0 191.6,85.8 191.6,191.6 0,105.8 -85.8,191.6 -191.6,191.6 h -879.2 l -862.8,862.8 h 1147.1 l 621.7,-621.7 c 74.8,-74.9 196.1,-74.9 270.9,0 74.8,74.8 74.8,196.1 0,270.9 l -350.8,350.8 h 215 l 396,-396 c 74.8,-74.9 196.1,-74.9 270.9,0 74.9,74.8 74.9,196.1 0,270.9 l -316.9,316.9"
         style="fill:#81a5de;fill-opacity:1;fill-rule:nonzero;stroke:none"
         transform="matrix(0.13333333,0,0,-0.13333333,0,5291.3333)" />
    </g>
    <g
       id="g29">
      <path
         id="path17"
         d="m 6945.25,14809.1 -463.3,339.2 v 478 l 399.52,-230.7 z m -1357.13,0 62.64,576.1 417.64,241.1 v -465.6 z m -678.56,1175.3 539.79,238 412.29,-238 -412.26,-238 z m 678.56,1175.3 480.28,-351.6 v -465.6 l -417.64,241.2 z m 1357.13,0 -63.78,-586.5 -399.52,-230.6 v 477.9 z m 678.57,-1175.3 -530.22,-233.8 -404.92,233.8 404.95,233.8 z m 1846.45,-1102.9 c -27.19,110.9 -139.11,178.7 -250.08,151.6 l -620.19,-152.2 -202.33,116.8 485.5,130.1 c 110.31,29.5 175.79,142.9 146.24,253.2 -29.53,110.3 -142.93,175.8 -253.24,146.3 l -884.95,-237.2 -410.31,236.9 662.92,292.3 c 65.42,28.9 107.64,93.6 107.64,165.1 0,71.5 -42.22,136.3 -107.63,165.1 l -662.89,292.3 317.07,183.1 918.6,-246.1 c 110.31,-29.6 223.71,35.8 253.24,146.1 29.55,110.4 -35.94,223.8 -146.25,253.3 l -519.07,139.1 281.24,162.4 607.44,-133 c 111.59,-24.3 221.78,46.2 246.24,157.9 24.38,111.6 -46.21,221.7 -157.83,246.1 l -469.35,102.8 c -6.84,11.3 -14.52,21.9 -23.06,31.5 l 103.47,472.7 c 24.42,111.5 -46.21,221.7 -157.83,246.1 -111.54,24.5 -221.74,-46.2 -246.15,-157.7 l -136.48,-623.7 -251.98,-145.5 138.02,515.2 c 29.54,110.3 -35.86,223.7 -146.17,253.3 -110.32,29.5 -223.72,-36 -253.26,-146.3 l -245.06,-914.6 -324.99,-187.6 79.47,730.6 c 7.73,71.1 -27.24,140.1 -89.17,175.8 -61.91,35.8 -139.1,31.6 -196.8,-10.7 l -580.34,-424.8 v 414.4 l 670.96,671 c 80.77,80.7 80.77,211.6 0,292.4 -80.68,80.8 -211.67,80.8 -292.35,0 l -378.61,-378.5 v 275.7 l 459.21,459.1 c 80.77,80.8 80.77,211.7 0,292.4 -80.76,80.8 -211.67,80.8 -292.44,0 l -360.39,-360.4 -360.47,360.4 c -80.69,80.8 -211.67,80.8 -292.38,0 -80.75,-80.7 -80.75,-211.6 0,-292.4 L 6068.4,18569 v -302 l -378.6,378.6 c -80.77,80.8 -211.67,80.8 -292.44,0 -80.76,-80.8 -80.76,-211.7 0,-292.4 l 671.04,-671 v -426.8 l -597.32,437.3 c -57.7,42.2 -134.87,46.4 -196.8,10.6 -61.92,-35.7 -96.89,-104.7 -89.16,-175.8 l 78.33,-720.2 -295.2,170.4 -263.69,984.2 c -29.54,110.3 -142.94,175.8 -253.25,146.3 -110.31,-29.6 -175.72,-143 -146.17,-253.3 l 156.66,-584.8 -313.4,181 -115.65,586.1 c -22.06,112 -130.79,184.9 -242.88,162.8 -112.04,-22.1 -184.94,-130.9 -162.79,-242.9 l 98.62,-500.1 -500.06,-98.5 c -112.09,-22.2 -185,-131 -162.8,-243 22.05,-112 130.78,-184.9 242.83,-162.8 l 654.96,129.3 208.7,-120.5 -449.54,-120.5 c -110.31,-29.6 -175.8,-143 -146.25,-253.3 29.54,-110.3 142.93,-175.7 253.25,-146.1 l 849.02,227.4 386.23,-222.9 -672.5,-296.6 c -65.42,-28.8 -107.63,-93.6 -107.63,-165.1 0,-71.5 42.22,-136.2 107.64,-165.1 l 672.52,-296.5 -363.4,-209.9 -898.19,240.7 c -110.31,29.5 -223.7,-35.9 -253.25,-146.2 -29.54,-110.3 35.87,-223.7 146.18,-253.2 l 498.74,-133.7 -225.8,-130.4 -621.19,170.7 c -110.12,30.3 -223.86,-34.5 -254.17,-144.6 -30.24,-110.2 34.4,-224 144.6,-254.2 l 491.45,-135.1 -135.03,-491.4 c -30.28,-110.1 34.45,-223.9 144.6,-254.1 110.16,-30.3 223.9,34.4 254.14,144.5 l 163.64,595.3 267.95,154.8 -143.52,-535.8 c -29.53,-110.3 35.88,-223.6 146.19,-253.1 110.31,-29.7 223.7,35.8 253.25,146.1 l 250.55,935.2 334.64,193.2 -78.33,-720.3 c -7.73,-71.1 27.24,-140 89.16,-175.8 28.01,-16.1 59.15,-24.2 90.2,-24.2 37.57,0 75.01,11.8 106.6,34.9 l 597.32,437.3 v -426.8 l -671.04,-671.1 c -80.76,-80.8 -80.76,-211.7 0,-292.4 80.77,-80.7 211.67,-80.7 292.44,0 l 378.6,378.6 v -291.9 L 5635.48,12977 c -80.75,-80.8 -80.75,-211.7 0,-292.5 80.77,-80.7 211.69,-80.7 292.44,0 l 360.41,360.4 360.44,-360.4 c 80.72,-80.7 211.66,-80.7 292.39,0 80.77,80.8 80.77,211.7 0,292.5 l -459.21,459.2 v 265.6 l 378.61,-378.6 c 80.68,-80.7 211.67,-80.7 292.35,0 80.77,80.7 80.77,211.6 0,292.4 l -670.96,671 v 414.5 l 580.34,-424.9 c 57.7,-42.3 134.89,-46.4 196.8,-10.7 61.93,35.8 96.9,104.7 89.17,175.8 l -79.47,730.7 375.53,-216.8 254.08,-948.3 c 29.54,-110.4 142.94,-175.8 253.25,-146.2 110.31,29.5 175.72,142.9 146.17,253.2 l -147.02,548.9 244.22,-141 148.42,-605.4 c 27.19,-110.9 139.16,-178.8 250.09,-151.5 110.92,27.2 178.81,139.1 151.53,250 l -121.37,495.1 495.05,121.4 c 110.96,27.1 178.76,139.1 151.53,250.1"
         style="fill:#81a5de;fill-opacity:1;fill-rule:nonzero;stroke:none"
         transform="matrix(0.13333333,0,0,-0.13333333,0,5291.3333)" />
    </g>
    <path
       id="path24"
       d="m 36620.6,6382.5 c -25.2,102.8 -128.9,165.7 -231.7,140.5 l -574.6,-141 -187.5,108.2 449.8,120.5 c 102.2,27.4 162.9,132.5 135.5,234.7 -27.4,102.2 -132.4,162.8 -234.6,135.5 l -819.9,-219.7 -861.7,497.4 h 967.4 c 105.8,0 191.6,85.8 191.6,191.6 0,105.8 -85.8,191.6 -191.6,191.6 h -808.7 l 616.7,356 851,-228.1 c 102.2,-27.3 207.3,33.3 234.6,135.5 27.4,102.2 -33.3,207.3 -135.5,234.6 l -480.9,128.9 260.6,150.5 562.8,-123.2 c 103.4,-22.6 205.5,42.8 228.1,146.2 22.6,103.4 -42.8,205.5 -146.2,228.1 l -434.9,95.2 c -6.3,10.5 -13.4,20.3 -21.3,29.1 l 95.8,438 c 22.7,103.4 -42.8,205.5 -146.2,228.1 -103.3,22.6 -205.4,-42.8 -228,-146.2 l -126.5,-577.8 -233.4,-134.8 127.8,477.3 c 27.4,102.2 -33.2,207.2 -135.4,234.6 -102.2,27.4 -207.3,-33.2 -234.6,-135.4 L 34882,8331 l -784.4,-453 481.9,824.2 c 53.3,91.4 22.6,208.7 -68.8,262.1 -91.3,53.4 -208.7,22.7 -262,-68.7 L 33851.9,8217 v 760.4 l 621.6,621.6 c 74.9,74.9 74.9,196.1 0,271 -74.7,74.8 -196.1,74.8 -270.8,0 l -350.8,-350.8 v 255.5 l 425.5,425.4 c 74.8,74.8 74.8,196.1 0,270.9 -74.9,74.9 -196.1,74.9 -271,0 l -333.9,-333.9 -334,333.9 c -74.7,74.9 -196.1,74.9 -270.8,0 -74.9,-74.8 -74.9,-196.1 0,-270.9 L 33468.8,9799 V 9519.2 L 33118,9870 c -74.8,74.8 -196.1,74.8 -271,0 -74.8,-74.9 -74.8,-196.1 0,-271 l 621.8,-621.6 v -836.8 l -441.5,755 c -53.3,91.4 -170.7,122.1 -262,68.7 -91.4,-53.4 -122.1,-170.7 -68.8,-262.1 l 459.2,-785.3 -706.2,407.7 -244.3,911.9 c -27.4,102.2 -132.4,162.9 -234.7,135.5 -102.1,-27.4 -162.8,-132.4 -135.4,-234.6 l 145.2,-541.8 -290.4,167.6 -107.1,543.1 c -20.5,103.8 -121.2,171.3 -225.1,150.9 -103.8,-20.6 -171.3,-121.3 -150.8,-225.1 l 91.4,-463.3 -463.3,-91.4 c -103.9,-20.5 -171.4,-121.2 -150.9,-225 20.5,-103.9 121.2,-171.4 225,-150.9 l 606.9,119.7 193.3,-111.6 -416.5,-111.6 c -102.2,-27.4 -162.9,-132.4 -135.5,-234.6 27.4,-102.2 132.4,-162.9 234.6,-135.5 l 786.7,210.8 687.5,-396.9 h -822.9 c -105.7,0 -191.5,-85.8 -191.5,-191.6 0,-105.8 85.8,-191.6 191.5,-191.6 h 981.5 l -825,-476.3 -832.2,223 c -102.1,27.4 -207.2,-33.3 -234.6,-135.5 -27.4,-102.2 33.3,-207.2 135.4,-234.6 l 462.1,-123.9 -209.2,-120.8 -575.5,158.2 c -102,28 -207.4,-31.9 -235.5,-134 -28,-102 31.9,-207.5 134,-235.5 l 455.3,-125.1 -125.1,-455.4 c -28,-102 31.9,-207.4 134,-235.4 102,-28.1 207.4,31.9 235.4,133.9 l 151.6,551.5 248.3,143.4 -132.9,-496.3 c -27.4,-102.2 33.2,-207.2 135.4,-234.6 102.2,-27.4 207.2,33.3 234.6,135.4 l 232.1,866.4 624.3,360.4 -413.8,-707.7 c -53.4,-91.2 -22.7,-208.6 68.7,-261.9 91.4,-53.4 208.7,-22.7 262,68.6 l 514.7,880.2 V 5831.4 L 32847,5209.7 c -74.8,-74.8 -74.8,-196.1 0,-270.9 74.9,-74.8 196.2,-74.8 271,0 l 350.8,350.8 V 5019.1 L 33067.7,4618 c -74.9,-74.8 -74.9,-196.1 0,-270.9 74.8,-74.9 196.1,-74.9 270.9,0 l 333.9,333.9 334,-333.9 c 74.8,-74.9 196.1,-74.9 270.9,0 74.8,74.8 74.8,196.1 0,270.9 l -425.5,425.5 v 246.1 l 350.8,-350.8 c 74.7,-74.8 196.1,-74.8 270.8,0 74.9,74.8 74.9,196.1 0,270.9 l -621.6,621.7 v 894.8 l 470,-803.8 c 53.3,-91.3 170.7,-122 262,-68.6 91.4,53.3 122.1,170.7 68.7,261.9 l -436.5,746.6 712.7,-411.5 235.4,-878.6 c 27.4,-102.2 132.5,-162.8 234.7,-135.4 102.2,27.4 162.8,132.4 135.4,234.6 l -136.2,508.5 226.3,-130.7 137.5,-560.7 c 25.2,-102.8 128.9,-165.7 231.7,-140.5 102.7,25.2 165.6,128.9 140.4,231.7 l -112.5,458.7 458.7,112.4 c 102.8,25.2 165.6,128.9 140.4,231.7"
       style="fill:#81a5de;fill-opacity:1;fill-rule:nonzero;stroke:none"
       transform="matrix(0.13333333,0,0,-0.13333333,0,5291.3333)"
       inkscape:label="path24" />
    <path
       id="path23"
       d="m 27288.9,7416.4 c -0.1,10.7 -1.1,21.1 -2.8,31.3 l 319.7,319.7 c 74.8,74.7 74.8,196.1 0,270.9 -74.9,74.8 -196.1,74.8 -270.9,0 l -430.6,-430.6 h -180.4 l 350.8,350.8 c 74.7,74.8 74.7,196.1 0,270.9 -74.9,74.8 -196.1,74.8 -271,0 L 26182,7607.7 h -1147 l 862.8,862.8 h 879.2 c 105.8,0.1 191.5,85.8 191.5,191.6 0,105.8 -85.7,191.6 -191.5,191.6 h -758.4 c -1.4,1.5 -2.6,3.1 -4.1,4.5 -1.5,1.5 -3,2.7 -4.5,4.1 v 758.4 c 0,105.7 -85.8,191.5 -191.5,191.6 -105.9,-0.1 -191.7,-85.8 -191.7,-191.6 V 8741.5 L 24764,7878.6 v 1110.5 l 621.7,621.7 c 74.8,74.8 74.8,196.1 0,271 -74.8,74.7 -196.1,74.7 -270.9,0 L 24764,9530.9 v 248 l 421.2,421.2 c 74.9,74.8 74.9,196.1 0,271 -74.8,74.8 -196.1,74.8 -270.9,0 l -333.9,-334 -334,334 c -74.7,74.8 -196.1,74.8 -270.9,0 -74.8,-74.9 -74.8,-196.2 0,-271 l 405.3,-405.3 V 9531 l -350.7,350.8 c -74.8,74.7 -196.1,74.7 -270.9,0 -74.8,-74.9 -74.8,-196.2 0,-271 l 621.6,-621.7 V 7878.7 l -862.8,862.8 v 879.2 c 0,105.8 -85.7,191.6 -191.6,191.6 -105.8,0 -191.6,-85.8 -191.6,-191.6 v -758.3 c -1.5,-1.4 -3.1,-2.6 -4.5,-4.1 -1.5,-1.5 -2.8,-3.1 -4.2,-4.6 h -758.3 c -105.7,0 -191.5,-85.7 -191.5,-191.6 0,-105.8 85.8,-191.5 191.6,-191.5 l 879.2,-0.1 862.8,-862.8 h -1110.3 l -621.8,621.7 c -74.8,74.8 -196.1,74.8 -270.9,0 -74.8,-74.8 -74.8,-196.1 0,-270.9 l 350.7,-350.8 h -249.8 l -406.2,406.2 c -74.8,74.9 -196.2,74.9 -271,0 -74.8,-74.8 -74.8,-196.1 0,-270.9 l 325.5,-325.5 c 0,-0.4 -0.1,-0.9 -0.1,-1.4 0,-4.9 0.4,-9.9 0.8,-14.8 l -326.1,-326.1 c -75,-74.8 -75,-196.1 -0.1,-270.9 74.9,-74.9 196.1,-74.9 270.9,0 l 420.4,420.3 h 235.8 l -350.8,-350.8 c -74.8,-74.8 -74.8,-196.1 0,-270.9 74.8,-74.9 196.1,-74.9 270.9,0 l 621.8,621.7 H 24110 l -862.9,-862.8 h -879.2 c -105.8,0 -191.6,-85.8 -191.6,-191.6 0,-105.8 85.8,-191.7 191.6,-191.6 l 758.3,-0.1 c 1.4,-1.5 2.6,-3 4.1,-4.5 1.4,-1.4 3,-2.7 4.5,-4.1 v -758.3 c 0,-105.8 85.8,-191.6 191.7,-191.6 105.8,0 191.5,85.8 191.5,191.6 l 0.1,879.2 862.7,862.8 V 5770 l -621.6,-621.7 c -74.8,-74.8 -74.8,-196.1 0,-270.9 74.8,-74.8 196.1,-74.8 270.9,0 l 350.7,350.7 V 5035.5 L 23963.3,4618 c -74.8,-74.8 -74.8,-196.1 0,-270.9 74.9,-74.8 196.1,-74.8 271,0 l 333.9,333.9 333.9,-333.9 c 74.8,-74.9 196.1,-74.9 270.9,0 74.9,74.9 74.8,196.1 0,270.9 l -409,409.1 v 201.1 l 350.8,-350.8 c 74.8,-74.8 196.1,-74.8 270.9,0 74.8,74.8 74.8,196.1 0,270.9 L 24764,5770 v 1183.7 l 862.8,-862.9 v -879.2 c 0,-105.8 85.8,-191.6 191.7,-191.6 105.7,0 191.5,85.8 191.5,191.6 V 5970 c 1.5,1.4 3,2.7 4.5,4.1 1.4,1.4 2.7,3 4.1,4.5 h 758.4 c 105.7,0 191.5,85.8 191.5,191.6 0,105.8 -85.7,191.6 -191.6,191.6 h -879.1 l -862.9,862.8 H 26182 l 621.7,-621.7 c 74.9,-74.9 196.1,-74.9 271,0 74.7,74.8 74.7,196.1 0,270.9 l -350.8,350.8 h 214.9 l 396.1,-396 c 74.7,-74.9 196.1,-74.9 270.9,0 74.8,74.8 74.8,196.1 0,270.9 l -316.9,316.9"
       style="fill:#81a5de;fill-opacity:1;fill-rule:nonzero;stroke:none"
       transform="matrix(0.13333333,0,0,-0.13333333,0,5291.3333)" />
  </g>
</svg>
